<svg width="29" height="17" viewBox="0 0 29 17" fill="none" xmlns="http://www.w3.org/2000/svg">
<rect y="1" width="29" height="14" rx="3" fill="#FF4955"/>
<path d="M0 17V11L4 15L0 17Z" fill="#FF4955"/>
<path d="M9.15 4.07H10.07V11H9.15V7.87H5.66V11H4.75V4.07H5.66V7.15H9.15V4.07ZM16.5964 9.51C17.0831 9.01 17.3264 8.35 17.3264 7.53C17.3264 6.71 17.0831 6.05333 16.5964 5.56C16.1097 5.06 15.4864 4.81 14.7264 4.81C13.9731 4.81 13.3497 5.06 12.8564 5.56C12.3697 6.05333 12.1264 6.71 12.1264 7.53C12.1264 8.35 12.3731 9.01 12.8664 9.51C13.3597 10.01 13.9831 10.26 14.7364 10.26C15.4897 10.26 16.1097 10.01 16.5964 9.51ZM14.7364 11.07C13.7431 11.07 12.9064 10.7367 12.2264 10.07C11.5464 9.39667 11.2064 8.55 11.2064 7.53C11.2064 6.50333 11.5464 5.66 12.2264 5C12.9064 4.33333 13.7431 4 14.7364 4C15.7297 4 16.5631 4.33333 17.2364 5C17.9164 5.66 18.2564 6.50333 18.2564 7.53C18.2564 8.55667 17.9164 9.40333 17.2364 10.07C16.5631 10.7367 15.7297 11.07 14.7364 11.07ZM19.0787 4.8V4.07H23.6487V4.8H21.8187V11H20.9087V4.8H19.0787Z" fill="white"/>
</svg>
