<svg width="158" height="31" viewBox="0 0 158 31" fill="none" xmlns="http://www.w3.org/2000/svg">
<path d="M46.5435 29.5572C49.2035 29.5922 51.6185 29.4522 52.9135 29.2422C55.1885 28.9272 57.0085 27.8072 57.6735 25.7772V29.1372H64.9885V0.962205H57.6735V12.8972C57.0085 10.8672 55.1885 9.57221 52.9135 9.25721C51.6185 9.04721 46.5435 9.01221 46.5435 9.01221C44.4785 8.94221 43.3585 9.18721 42.4835 9.46721C40.6985 9.99221 39.1935 11.1122 38.4935 13.0722C38.1085 13.9822 37.8635 15.6622 37.8635 17.4822V21.0522C37.8635 22.9772 38.1085 24.5872 38.4935 25.4622C39.1935 27.4222 40.6985 28.5772 42.4835 29.1022C43.3585 29.3472 44.4785 29.5572 46.5435 29.5572ZM57.8485 18.9872C57.8485 19.7572 57.7785 20.9472 57.7785 20.9472C57.7785 22.2072 57.0785 23.7122 55.1885 23.7122C55.1885 23.7122 52.9835 23.8172 51.5135 23.8172C49.9735 23.8172 47.5585 23.7122 47.5585 23.7122C45.6685 23.7122 44.9685 22.2072 44.9685 20.9472C44.9685 20.9472 44.8985 19.8622 44.8985 19.1272C44.8985 18.4272 44.9685 17.3422 44.9685 17.3422C44.9685 16.0822 45.6685 14.5772 47.5585 14.5772C47.5585 14.5772 50.0785 14.4722 51.6885 14.4722C53.0885 14.4722 55.1885 14.5772 55.1885 14.5772C57.0785 14.5772 57.7785 16.0822 57.7785 17.3422C57.7785 17.3422 57.8485 18.3572 57.8485 18.9872ZM96.118 21.0522V17.4822C96.118 15.6622 95.8729 13.9822 95.5229 13.0722C94.788 11.1122 93.2829 9.99221 91.5329 9.46721C90.6579 9.18721 89.5029 9.01221 87.4379 9.01221H77.4979C75.4329 9.01221 74.2779 9.18721 73.4029 9.46721C71.6529 9.99221 70.1479 11.1122 69.4129 13.0722C69.0629 13.9822 68.7829 15.5572 68.7829 17.4822V21.0522C68.7829 22.8722 69.0629 24.5872 69.4129 25.4622C70.1479 27.4222 71.6529 28.5772 73.4029 29.1022C74.2779 29.3472 75.4329 29.5572 77.4979 29.5572H87.4379C89.5029 29.5572 90.6579 29.3472 91.5329 29.1022C93.2829 28.5772 94.788 27.4222 95.5229 25.4622C95.8729 24.5872 96.118 22.9072 96.118 21.0522ZM80.4029 14.4722H84.5329C86.1429 14.4722 86.8079 14.6822 87.2279 14.8922C88.313 15.4522 88.6279 16.4672 88.7329 17.5522C88.8729 19.1272 89.0479 22.0322 87.5779 23.2222C87.2279 23.5372 86.2479 23.8522 84.8829 23.9222H80.0179C78.7229 23.9222 77.7079 23.5372 77.3229 23.2222C75.8879 22.0322 76.0279 19.1272 76.2029 17.5522C76.3079 16.4672 76.6229 15.4522 77.7079 14.8922C78.1279 14.6822 78.7929 14.4722 80.4029 14.4722ZM112.051 29.2422C113.346 29.4522 115.796 29.5922 118.421 29.5572C120.521 29.5572 121.641 29.3472 122.516 29.1022C124.301 28.5772 125.771 27.4222 126.506 25.4622C126.891 24.5872 127.136 22.9772 127.136 21.0522V17.4822C127.136 15.6622 126.891 13.9822 126.506 13.0722C125.771 11.1122 124.301 9.99221 122.516 9.46721C121.641 9.18721 120.521 8.94221 118.421 9.01221C118.421 9.01221 113.346 9.04721 112.051 9.25721C109.776 9.57221 107.991 10.8672 107.291 12.8972V0.962205H100.011V29.1372H107.291V25.7772C107.991 27.8072 109.776 28.9272 112.051 29.2422ZM107.186 20.9472C107.186 20.9472 107.151 19.7572 107.151 18.9872C107.151 18.3572 107.186 17.3422 107.186 17.3422C107.186 16.0822 107.921 14.5772 109.776 14.5772C109.776 14.5772 111.911 14.4722 113.311 14.4722C114.921 14.4722 117.441 14.5772 117.441 14.5772C119.331 14.5772 120.031 16.0822 120.031 17.3422C120.031 17.3422 120.101 18.4272 120.101 19.1272C120.101 19.8622 120.031 20.9472 120.031 20.9472C120.031 22.2072 119.331 23.7122 117.441 23.7122C117.441 23.7122 115.026 23.8172 113.451 23.8172C112.016 23.8172 109.776 23.7122 109.776 23.7122C107.921 23.7122 107.186 22.2072 107.186 20.9472ZM156.476 29.1372V18.1472C156.476 15.6622 156.686 13.0372 154.761 11.0772C152.556 8.73221 149.231 9.01221 147.166 9.01221H138.836C134.426 9.01221 131.521 9.67721 131.206 15.1022H138.346C138.416 14.7872 138.416 14.2272 139.081 13.7722C139.221 13.6672 139.816 13.5622 140.341 13.5622C140.341 13.5622 145.206 13.5622 145.486 13.5622C146.431 13.5622 147.306 13.4572 148.041 13.9122C149.231 14.5772 149.091 16.1872 149.091 17.9372C146.011 15.9772 138.626 16.2922 135.616 16.7122C133.691 16.9572 131.871 17.4822 130.961 19.5122C130.226 21.1222 130.296 25.4622 131.381 27.0722C132.886 29.3472 136.141 29.1372 138.206 29.1372H143.806C146.116 29.1372 147.271 28.9272 149.441 26.8622V29.1372H156.476ZM145.906 24.7972H141.006C140.131 24.7972 139.501 24.7272 139.291 24.6922C138.626 24.5172 138.031 24.3072 137.751 23.3272C137.541 22.6272 137.751 21.7872 138.451 21.2272C138.836 20.9472 139.816 20.8072 141.111 20.8072H145.801C147.096 20.8072 148.076 20.9472 148.461 21.2272C149.196 21.7872 149.371 22.6272 149.196 23.3272C148.881 24.3072 148.286 24.5172 147.621 24.6922C147.411 24.7272 146.781 24.7972 145.906 24.7972Z" fill="#404041"/>
<path d="M24.0556 1H5.3313C2.38691 1 0 3.41715 0 6.39887V25.1698C0 28.1515 2.38691 30.5686 5.3313 30.5686H24.0556C27 30.5686 29.3869 28.1515 29.3869 25.1698V6.39887C29.3869 3.41715 27 1 24.0556 1Z" fill="#404041"/>
<path d="M14.6935 26.0197C20.3116 26.0197 24.8659 21.4372 24.8659 15.7844C24.8659 10.1316 20.3116 5.54907 14.6935 5.54907C9.07545 5.54907 4.52112 10.1316 4.52112 15.7844C4.52112 21.4372 9.07545 26.0197 14.6935 26.0197Z" fill="#8CC540" stroke="#C7E0A2" stroke-width="1.5" stroke-miterlimit="10"/>
</svg>
