<svg width="32" height="32" xmlns="http://www.w3.org/2000/svg"><g fill="none" fill-rule="evenodd"><path d="M0 0h32v32H0z"/><g transform="translate(2 5)"><path d="m28.823 8.261-6.042-5.78a.618.618 0 0 0-.427-.169h-5.437V.578A.59.59 0 0 0 16.312 0H2.417C1.084 0 0 1.037 0 2.312v14.45c0 .956.813 1.734 1.812 1.734h24.771c1.333 0 2.417-1.037 2.417-2.312V8.67c0-.154-.064-.3-.177-.409z" fill="#00BFA7" fill-rule="nonzero"/><path d="M7.613 6.05c.333 0 .604.26.604.579a.59.59 0 0 1-.604.578H5.8v1.156h1.208c.334 0 .605.258.605.578a.59.59 0 0 1-.605.578H5.8v1.734a.59.59 0 0 1-.604.578.591.591 0 0 1-.604-.578V6.629c0-.32.27-.578.604-.578h2.417zm9.666 0c.334 0 .604.26.604.579a.59.59 0 0 1-.604.578h-1.812v1.156h1.208a.59.59 0 0 1 .604.578.59.59 0 0 1-.604.578h-1.208v1.156h1.812a.59.59 0 0 1 .604.578.59.59 0 0 1-.604.578h-2.417a.591.591 0 0 1-.604-.578V6.629c0-.32.27-.578.604-.578h2.417zm4.833 0c.334 0 .605.26.605.579a.59.59 0 0 1-.605.578H20.3v1.156h1.208a.59.59 0 0 1 .604.578.59.59 0 0 1-.604.578H20.3v1.156h1.812c.334 0 .605.258.605.578a.59.59 0 0 1-.605.578h-2.416a.591.591 0 0 1-.604-.578V6.629c0-.32.27-.578.604-.578h2.416zm-10.875 0c1 0 1.813.779 1.813 1.735 0 .444-.175.849-.463 1.156.288.307.463.712.463 1.156v1.156a.59.59 0 0 1-.604.578.591.591 0 0 1-.604-.578v-1.156a.592.592 0 0 0-.605-.578h-.604v1.734a.59.59 0 0 1-.604.578.591.591 0 0 1-.604-.578V6.629c0-.32.27-.578.604-.578h1.208zm0 1.157h-.604v1.156h.604c.333 0 .605-.26.605-.578a.592.592 0 0 0-.605-.578z" fill="#FFF" fill-rule="nonzero"/><ellipse fill="#6CDAFF" cx="6.514" cy="18.478" rx="3.682" ry="3.522"/><ellipse fill="#6CDAFF" cx="21.75" cy="18.478" rx="3.682" ry="3.522"/><path d="M6.514 14.956c2.033 0 3.681 1.577 3.681 3.522v.018H2.832v-.018c0-1.883 1.544-3.42 3.486-3.517zm15.236 0c2.033 0 3.682 1.577 3.682 3.522v.018h-7.364v-.018c0-1.883 1.544-3.42 3.486-3.517z" fill="#08956C" fill-rule="nonzero"/></g></g></svg>