<svg width="33" height="32" xmlns="http://www.w3.org/2000/svg"><g fill="none" fill-rule="evenodd"><path d="M.533 0h32v32h-32z"/><g transform="translate(1.803 2.572)"><rect fill="#E20D25" y="7.261" width="8.613" height="8.303" rx="1.35"/><path d="M22.299 1.885v19.51L12.13 19.306v5.245a2.306 2.306 0 1 1-4.612 0v-6.192l-1.774-.364a1.8 1.8 0 0 1-1.438-1.763V7.05a1.8 1.8 0 0 1 1.437-1.764l16.555-3.4z" fill="#FF5D53"/><circle fill="#FFE078" cx="24.976" cy="11.627" r="4.484"/><path d="m8.751 6.752.885-.172a.86.86 0 1 1 .328 1.689l-.885.172a.86.86 0 1 1-.328-1.689zm3.344-.65 3.821-.743a.86.86 0 0 1 .328 1.689l-3.82.743a.86.86 0 1 1-.329-1.689z" fill="#FFF"/><rect fill="#FF5D53" x="19.531" width="5.445" height="23.254" rx="2.7"/><path d="M24.976 7.143v8.968a4.484 4.484 0 0 1 0-8.968z" fill="#E20D25"/></g></g></svg>