<svg width="32" height="32" xmlns="http://www.w3.org/2000/svg"><g fill="none" fill-rule="evenodd"><path d="M0 0h32v32H0z"/><g transform="translate(3 2)"><path d="M26.614 9.788a.78.78 0 0 0-.772 0l-3.889 3.62v-2.186a3.002 3.002 0 0 0-2.989-3.004H2.99A3.002 3.002 0 0 0 0 11.222v12.773C0 25.65 1.343 27 2.989 27h15.975a2.987 2.987 0 0 0 2.99-2.988v-2.185l3.888 3.62a.778.778 0 0 0 .772 0 .807.807 0 0 0 .386-.684V10.471c0-.29-.15-.546-.386-.683z" fill="#8E68FF" fill-rule="nonzero"/><circle fill="#FBA4EF" cx="5.87" cy="5.283" r="5.283"/><circle fill="#FBA4EF" cx="16.435" cy="5.283" r="5.283"/><path d="M5.87 10.565a5.274 5.274 0 0 1-4.177-2.048 2.93 2.93 0 0 1 1.296-.3l7.273.001a5.278 5.278 0 0 1-4.392 2.347zm13.094-2.347c.563 0 1.09.157 1.541.431a5.269 5.269 0 0 1-4.07 1.916 5.278 5.278 0 0 1-4.393-2.347z" fill="#6207FD" fill-rule="nonzero"/><path d="M4.082 14.448c.395 0 .716.349.716.779v4.416c.286 0 .628-.002.951-.004h.005c.393 0 .713.346.716.775.002.43-.317.78-.712.783-.342.002-.617.004-.837.004h-.569c-.317-.001-.348-.007-.391-.015-.344-.064-.595-.389-.595-.768v-5.191c0-.43.32-.78.716-.78zm4.297 0c.396 0 .717.349.717.779v5.195c0 .43-.321.78-.717.78-.395 0-.716-.35-.716-.78v-5.195c0-.43.321-.78.716-.78zm3.303.523 1.045 3.275.993-3.255c.125-.409.53-.63.906-.494.375.136.578.577.454.985l-1.56 5.106v.006c-.114.36-.425.605-.775.608h-.006c-.348 0-.66-.24-.776-.597l-.002-.005-1.632-5.118c-.13-.406.068-.85.442-.991.373-.142.781.074.91.48zm7.355-.523c.396 0 .716.349.716.779 0 .43-.32.78-.716.78h-1.295v1.038h1.147c.396 0 .716.35.716.78 0 .43-.32.779-.716.779h-1.147v1.039h1.295c.396 0 .716.349.716.78 0 .43-.32.779-.716.779h-2.011c-.396 0-.716-.35-.716-.78v-5.195c0-.43.32-.78.716-.78h2.011z" fill="#FFF" fill-rule="nonzero"/></g></g></svg>