<svg width="60" height="60" viewBox="0 0 60 60" fill="none" xmlns="http://www.w3.org/2000/svg">
<rect width="60" height="60" rx="30" fill="#FFEED9"/>
<path fill-rule="evenodd" clip-rule="evenodd" d="M23.6963 14H18.724C16.6673 14 15 15.622 15 17.6227V42.3773C15 44.378 16.6673 46 18.724 46H23.6963C23.686 45.8902 23.6807 45.779 23.6807 45.6667C23.6807 43.6416 25.3907 42 27.5002 42C29.6096 42 31.3196 43.6416 31.3196 45.6667C31.3196 45.779 31.3143 45.8902 31.304 46H36.276C38.3327 46 40 44.378 40 42.3773V17.6227C40 15.622 38.3327 14 36.276 14H31.304C31.3143 14.1098 31.3196 14.221 31.3196 14.3333C31.3196 16.3584 29.6096 18 27.5002 18C25.3907 18 23.6807 16.3584 23.6807 14.3333C23.6807 14.221 23.686 14.1098 23.6963 14ZM24.8413 26.2851C24.8413 27.114 24.1694 27.7859 23.3406 27.7859C22.5118 27.7859 21.8398 27.114 21.8398 26.2851C21.8398 25.4563 22.5118 24.7844 23.3406 24.7844C24.1694 24.7844 24.8413 25.4563 24.8413 26.2851ZM32.66 34.1038C32.66 34.9326 31.9881 35.6045 31.1593 35.6045C30.3304 35.6045 29.6585 34.9326 29.6585 34.1038C29.6585 33.275 30.3304 32.603 31.1593 32.603C31.9881 32.603 32.66 33.275 32.66 34.1038ZM30.7889 25.2753C31.1469 24.9173 31.7273 24.9173 32.0853 25.2753C32.4432 25.6333 32.4432 26.2137 32.0853 26.5717L23.5433 35.1136C23.1853 35.4716 22.6049 35.4716 22.2469 35.1136C21.889 34.7556 21.889 34.1752 22.2469 33.8173L30.7889 25.2753Z" fill="#FF9635"/>
<rect x="33.667" y="30" width="11" height="15.8889" rx="1.83333" fill="#FFC544"/>
<path fill-rule="evenodd" clip-rule="evenodd" d="M39.9999 30V42.7458C39.9999 44.4816 38.5928 45.8887 36.857 45.8887H35.2149C34.3592 45.8746 33.6699 45.1765 33.6699 44.3175V31.5714C33.6699 30.7036 34.3735 30 35.2414 30H39.9999Z" fill="#F85C1F"/>
</svg>
