<svg width="150" height="40" viewBox="0 0 150 40" fill="none" xmlns="http://www.w3.org/2000/svg">
<g clip-path="url(#clip0)">
<path d="M41.75 31.36C44.03 31.39 46.1 31.27 47.21 31.09C49.16 30.82 50.72 29.86 51.29 28.12V31H57.56V6.85H51.29V17.08C50.72 15.34 49.16 14.23 47.21 13.96C46.1 13.78 41.75 13.75 41.75 13.75C39.98 13.69 39.02 13.9 38.27 14.14C36.74 14.59 35.45 15.55 34.85 17.23C34.52 18.01 34.31 19.45 34.31 21.01V24.07C34.31 25.72 34.52 27.1 34.85 27.85C35.45 29.53 36.74 30.52 38.27 30.97C39.02 31.18 39.98 31.36 41.75 31.36ZM51.44 22.3C51.44 22.96 51.38 23.98 51.38 23.98C51.38 25.06 50.78 26.35 49.16 26.35C49.16 26.35 47.27 26.44 46.01 26.44C44.69 26.44 42.62 26.35 42.62 26.35C41 26.35 40.4 25.06 40.4 23.98C40.4 23.98 40.34 23.05 40.34 22.42C40.34 21.82 40.4 20.89 40.4 20.89C40.4 19.81 41 18.52 42.62 18.52C42.62 18.52 44.78 18.43 46.16 18.43C47.36 18.43 49.16 18.52 49.16 18.52C50.78 18.52 51.38 19.81 51.38 20.89C51.38 20.89 51.44 21.76 51.44 22.3ZM84.8424 24.07V21.01C84.8424 19.45 84.6324 18.01 84.3324 17.23C83.7024 15.55 82.4124 14.59 80.9124 14.14C80.1624 13.9 79.1724 13.75 77.4024 13.75H68.8824C67.1124 13.75 66.1224 13.9 65.3724 14.14C63.8724 14.59 62.5824 15.55 61.9524 17.23C61.6524 18.01 61.4124 19.36 61.4124 21.01V24.07C61.4124 25.63 61.6524 27.1 61.9524 27.85C62.5824 29.53 63.8724 30.52 65.3724 30.97C66.1224 31.18 67.1124 31.36 68.8824 31.36H77.4024C79.1724 31.36 80.1624 31.18 80.9124 30.97C82.4124 30.52 83.7024 29.53 84.3324 27.85C84.6324 27.1 84.8424 25.66 84.8424 24.07ZM71.3724 18.43H74.9124C76.2924 18.43 76.8624 18.61 77.2224 18.79C78.1524 19.27 78.4224 20.14 78.5124 21.07C78.6324 22.42 78.7824 24.91 77.5224 25.93C77.2224 26.2 76.3824 26.47 75.2124 26.53H71.0424C69.9324 26.53 69.0624 26.2 68.7324 25.93C67.5024 24.91 67.6224 22.42 67.7724 21.07C67.8624 20.14 68.1324 19.27 69.0624 18.79C69.4224 18.61 69.9924 18.43 71.3724 18.43ZM99.0992 31.09C100.209 31.27 102.309 31.39 104.559 31.36C106.359 31.36 107.319 31.18 108.069 30.97C109.599 30.52 110.859 29.53 111.489 27.85C111.819 27.1 112.029 25.72 112.029 24.07V21.01C112.029 19.45 111.819 18.01 111.489 17.23C110.859 15.55 109.599 14.59 108.069 14.14C107.319 13.9 106.359 13.69 104.559 13.75C104.559 13.75 100.209 13.78 99.0992 13.96C97.1492 14.23 95.6192 15.34 95.0192 17.08V6.85H88.7792V31H95.0192V28.12C95.6192 29.86 97.1492 30.82 99.0992 31.09ZM94.9292 23.98C94.9292 23.98 94.8992 22.96 94.8992 22.3C94.8992 21.76 94.9292 20.89 94.9292 20.89C94.9292 19.81 95.5592 18.52 97.1492 18.52C97.1492 18.52 98.9792 18.43 100.179 18.43C101.559 18.43 103.719 18.52 103.719 18.52C105.339 18.52 105.939 19.81 105.939 20.89C105.939 20.89 105.999 21.82 105.999 22.42C105.999 23.05 105.939 23.98 105.939 23.98C105.939 25.06 105.339 26.35 103.719 26.35C103.719 26.35 101.649 26.44 100.299 26.44C99.0692 26.44 97.1492 26.35 97.1492 26.35C95.5592 26.35 94.9292 25.06 94.9292 23.98ZM137.778 31V21.58C137.778 19.45 137.958 17.2 136.308 15.52C134.418 13.51 131.568 13.75 129.798 13.75H122.658C118.878 13.75 116.388 14.32 116.118 18.97H122.238C122.298 18.7 122.298 18.22 122.868 17.83C122.988 17.74 123.498 17.65 123.948 17.65C123.948 17.65 128.118 17.65 128.358 17.65C129.168 17.65 129.918 17.56 130.548 17.95C131.568 18.52 131.448 19.9 131.448 21.4C128.808 19.72 122.478 19.99 119.898 20.35C118.248 20.56 116.688 21.01 115.908 22.75C115.278 24.13 115.338 27.85 116.268 29.23C117.558 31.18 120.348 31 122.118 31H126.918C128.898 31 129.888 30.82 131.748 29.05V31H137.778ZM128.718 27.28H124.518C123.768 27.28 123.228 27.22 123.048 27.19C122.478 27.04 121.968 26.86 121.728 26.02C121.548 25.42 121.728 24.7 122.328 24.22C122.658 23.98 123.498 23.86 124.608 23.86H128.628C129.738 23.86 130.578 23.98 130.908 24.22C131.538 24.7 131.688 25.42 131.538 26.02C131.268 26.86 130.758 27.04 130.188 27.19C130.008 27.22 129.468 27.28 128.718 27.28Z" fill="black"/>
<path d="M21.5308 6.96094H5.22692C2.34017 6.96094 0 9.23126 0 12.0318V27.6811C0 30.4817 2.34017 32.752 5.22692 32.752H21.5308C24.4175 32.752 26.7577 30.4817 26.7577 27.6811V12.0318C26.7577 9.23126 24.4175 6.96094 21.5308 6.96094Z" fill="black"/>
<path d="M13.3731 29.5169C18.9108 29.5169 23.4 25.1867 23.4 19.8452C23.4 14.5037 18.9108 10.1736 13.3731 10.1736C7.8354 10.1736 3.34619 14.5037 3.34619 19.8452C3.34619 25.1867 7.8354 29.5169 13.3731 29.5169Z" fill="#8CC540" stroke="#C7E0A2" stroke-width="2" stroke-miterlimit="10"/>
</g>
<defs>
<clipPath id="clip0">
<rect width="150" height="39.5037" fill="black"/>
</clipPath>
</defs>
</svg>
