<svg viewBox="0 0 86 86" fill="currentColor" xmlns="http://www.w3.org/2000/svg"><path fill-rule="evenodd" clip-rule="evenodd" d="M40.313 9.7a2.688 2.688 0 0 0 5.374 0V2.688a2.688 2.688 0 0 0-5.374 0V9.7ZM37.62 75.25v3.426c0 .326.043 1.949.896 1.949h8.959a.896.896 0 0 0 .895-.896V75.25H37.62Zm10.866-5.375H37.455c-.612-4.512-2.875-8.565-6.309-11.151-6.152-4.634-8.997-12.273-7.424-19.93 1.53-7.45 7.553-13.5 14.992-15.054a20.81 20.81 0 0 1 4.236-.441c4.54 0 8.93 1.523 12.47 4.397A19.647 19.647 0 0 1 62.708 43c0 6.07-2.744 11.71-7.535 15.473-3.78 2.974-6.15 7.05-6.686 11.402ZM32.25 72.563v6.113c0 5.03 3.25 7.324 6.27 7.324h8.96a6.278 6.278 0 0 0 6.27-6.27v-7.968c0-3.386 1.73-6.69 4.748-9.062 6.092-4.79 9.585-11.968 9.585-19.701 0-7.59-3.379-14.688-9.27-19.475-5.898-4.795-13.634-6.633-21.192-5.046-9.506 1.989-17.207 9.718-19.16 19.236-1.996 9.714 1.627 19.41 9.457 25.305 2.712 2.043 4.332 5.533 4.332 9.335v.207ZM66.546 22.14a2.688 2.688 0 0 1-1.9-4.59l4.96-4.96a2.688 2.688 0 0 1 3.802 3.803l-4.96 4.96a2.695 2.695 0 0 1-1.902.787ZM76.3 45.688h7.013a2.688 2.688 0 0 0 0-5.376H76.3a2.688 2.688 0 0 0 0 5.376Zm-4.795 28.505a2.667 2.667 0 0 1-1.899-.788l-4.96-4.96a2.688 2.688 0 0 1 3.803-3.802l4.96 4.96a2.688 2.688 0 0 1-1.904 4.59Zm-58.91-.788a2.667 2.667 0 0 0 1.9.788 2.68 2.68 0 0 0 1.902-.788l4.96-4.96a2.688 2.688 0 0 0-3.802-3.802l-4.96 4.96a2.688 2.688 0 0 0 0 3.802ZM9.7 45.687H2.688a2.688 2.688 0 0 1 0-5.374H9.7a2.688 2.688 0 0 1 0 5.374Zm7.855-24.334a2.666 2.666 0 0 0 1.899.788 2.688 2.688 0 0 0 1.903-4.59l-4.96-4.96a2.688 2.688 0 1 0-3.802 3.803l4.96 4.96Zm38.883 23.439a2.688 2.688 0 0 1-2.688-2.688c0-5.436-4.418-9.854-9.854-9.854a2.688 2.688 0 0 1 0-5.375c8.396 0 15.229 6.833 15.229 15.23a2.688 2.688 0 0 1-2.688 2.687Z" fill="currentColor"/></svg>